<?xml version="1.0" standalone="no"?>
<!DOCTYPE svg PUBLIC "-//W3C//DTD SVG 20010904//EN"
 "http://www.w3.org/TR/2001/REC-SVG-20010904/DTD/svg10.dtd">
<svg version="1.0" xmlns="http://www.w3.org/2000/svg"
 width="700.000000pt" height="700.000000pt" viewBox="0 0 700.000000 700.000000"
 preserveAspectRatio="xMidYMid meet">
<metadata>
Created by potrace 1.11, written by Peter Selinger 2001-2013
</metadata>
<g transform="translate(0.000000,700.000000) scale(0.100000,-0.100000)"
fill="#000000" stroke="none">
<path d="M3427 6874 c-1 -1 -49 -4 -107 -7 -100 -6 -256 -22 -310 -32 -14 -3
-54 -10 -90 -16 -53 -8 -131 -26 -285 -63 -66 -16 -248 -77 -390 -131 -117
-44 -362 -169 -505 -257 -244 -151 -443 -311 -655 -529 -364 -375 -621 -800
-786 -1299 -115 -350 -159 -630 -164 -1045 -3 -236 6 -395 30 -510 3 -11 7
-36 9 -55 3 -19 12 -69 20 -110 134 -674 474 -1293 972 -1770 114 -110 114
-110 193 -175 530 -437 1177 -699 1881 -762 124 -11 467 -7 600 6 580 60 1112
255 1595 586 163 111 273 203 438 364 168 164 306 326 422 496 119 175 166
255 247 420 32 66 63 128 68 138 53 93 194 535 216 672 3 22 8 43 10 46 7 12
44 284 51 377 13 167 8 496 -11 657 -90 767 -430 1472 -970 2011 -577 575
-1363 931 -2166 980 -85 5 -309 11 -313 8z m228 -944 c171 -12 290 -32 460
-75 382 -98 755 -301 1043 -571 l63 -59 -429 -428 -429 -429 -63 56 c-222 198
-490 299 -795 299 -334 -1 -644 -130 -880 -368 -229 -231 -345 -517 -345 -855
0 -142 17 -258 56 -382 157 -496 641 -843 1174 -841 299 1 581 109 794 304
l58 52 429 -429 430 -429 -58 -54 c-255 -235 -571 -422 -894 -528 -273 -91
-475 -123 -769 -123 -400 0 -736 78 -1084 252 -879 438 -1407 1352 -1345 2330
76 1216 1039 2190 2252 2277 163 12 178 12 332 1z"/>
</g>
</svg>
