<?xml version="1.0" encoding="UTF-8" standalone="no"?>
<!-- Created with Inkscape (http://www.inkscape.org/) -->

<svg
   xmlns:dc="http://purl.org/dc/elements/1.1/"
   xmlns:cc="http://creativecommons.org/ns#"
   xmlns:rdf="http://www.w3.org/1999/02/22-rdf-syntax-ns#"
   xmlns:svg="http://www.w3.org/2000/svg"
   xmlns="http://www.w3.org/2000/svg"
   xmlns:xlink="http://www.w3.org/1999/xlink"
   xmlns:sodipodi="http://sodipodi.sourceforge.net/DTD/sodipodi-0.dtd"
   xmlns:inkscape="http://www.inkscape.org/namespaces/inkscape"
   width="100.28168mm"
   height="100.26454mm"
   viewBox="0 0 100.28168 100.26454"
   version="1.1"
   id="svg8"
   inkscape:version="0.92.4 (5da689c313, 2019-01-14)"
   sodipodi:docname="ct.svg">
  <defs
     id="defs2">
    <linearGradient
       inkscape:collect="always"
       id="linearGradient880">
      <stop
         style="stop-color:#9cde9f;stop-opacity:1"
         offset="0"
         id="stop876" />
      <stop
         style="stop-color:#48a9af;stop-opacity:0.94117647"
         offset="1"
         id="stop878" />
    </linearGradient>
    <marker
       style="overflow:visible"
       refY="0"
       refX="0"
       orient="auto"
       id="DistanceX">
      <path
         id="path817"
         style="stroke:#000000;stroke-width:0.5"
         d="M 3,-3 -3,3 M 0,-5 V 5"
         inkscape:connector-curvature="0" />
    </marker>
    <pattern
       y="0"
       x="0"
       width="8"
       patternUnits="userSpaceOnUse"
       id="Hatch"
       height="8">
      <path
         id="path820"
         stroke-width="0.25"
         stroke="#000000"
         linecap="square"
         d="M8 4 l-4,4" />
      <path
         id="path822"
         stroke-width="0.25"
         stroke="#000000"
         linecap="square"
         d="M6 2 l-4,4" />
      <path
         id="path824"
         stroke-width="0.25"
         stroke="#000000"
         linecap="square"
         d="M4 0 l-4,4" />
    </pattern>
    <symbol
       id="$MODEL_SPACE" />
    <symbol
       id="$PAPER_SPACE" />
    <linearGradient
       inkscape:collect="always"
       xlink:href="#linearGradient880"
       id="linearGradient882"
       x1="50.497551"
       y1="59.628632"
       x2="109.02192"
       y2="133.93654"
       gradientUnits="userSpaceOnUse"
       gradientTransform="matrix(3.7795276,0,0,3.7795276,-105.29697,-177.3414)" />
  </defs>
  <sodipodi:namedview
     id="base"
     pagecolor="#ffffff"
     bordercolor="#666666"
     borderopacity="1.0"
     inkscape:pageopacity="0.0"
     inkscape:pageshadow="2"
     inkscape:zoom="1.4142136"
     inkscape:cx="349.25571"
     inkscape:cy="124.47153"
     inkscape:document-units="mm"
     inkscape:current-layer="layer1"
     showgrid="false"
     inkscape:window-width="1920"
     inkscape:window-height="1001"
     inkscape:window-x="-9"
     inkscape:window-y="-9"
     inkscape:window-maximized="1" />
  <metadata
     id="metadata5">
    <rdf:RDF>
      <cc:Work
         rdf:about="">
        <dc:format>image/svg+xml</dc:format>
        <dc:type
           rdf:resource="http://purl.org/dc/dcmitype/StillImage" />
        <dc:title />
      </cc:Work>
    </rdf:RDF>
  </metadata>
  <g
     inkscape:label="Layer 1"
     inkscape:groupmode="layer"
     id="layer1"
     transform="translate(-27.859822,-46.92158)"
     style="display:inline">
    <path
       style="fill:url(#linearGradient882);fill-opacity:1;stroke:none;stroke-width:0.99999994"
       d="M 189.54102 0.47265625 C 87.698213 0.47265625 4.6876919 81.037535 0.7265625 181.90625 C 4.5131304 118.48242 57.120949 65.023456 125.01758 65.023438 L 331.76562 65.023438 C 297.12718 25.462478 246.25534 0.47265625 189.54102 0.47265625 z M 362.9043 114.14844 L 320.1875 114.15625 L 277.51758 114.15625 L 277.51758 246.39258 L 228.38477 274.08008 L 228.38477 114.15625 L 125.01758 114.15625 C 75.655289 114.15617 39.636992 160.84573 52.164062 208.5918 C 64.691137 256.33785 118.9921 279.32785 161.99609 255.09375 L 186.11719 297.89844 C 115.06005 337.94117 25.337595 299.95304 4.6386719 221.06055 C 2.4142271 212.58223 1.123537 204.12366 0.6796875 195.7793 C 3.9924743 297.23919 87.272421 378.47852 189.54102 378.47852 C 293.92023 378.47852 378.53236 293.85585 378.51758 189.47656 C 378.52146 162.69983 372.94395 137.22986 362.9043 114.14844 z "
       transform="matrix(0.26458333,0,0,0.26458333,27.859822,46.92158)"
       id="path871" />
  </g>
</svg>
