<?xml version="1.0" standalone="no"?>
<!DOCTYPE svg PUBLIC "-//W3C//DTD SVG 20010904//EN"
 "http://www.w3.org/TR/2001/REC-SVG-20010904/DTD/svg10.dtd">
<svg version="1.0" xmlns="http://www.w3.org/2000/svg"
 width="700.000000pt" height="700.000000pt" viewBox="0 0 700.000000 700.000000"
 preserveAspectRatio="xMidYMid meet">
<metadata>
Created by potrace 1.11, written by Peter Selinger 2001-2013
</metadata>
<g transform="translate(0.000000,700.000000) scale(0.100000,-0.100000)"
fill="#000000" stroke="none">
<path d="M3259 6986 c-2 -2 -39 -6 -82 -10 -471 -38 -991 -203 -1417 -449
-744 -430 -1311 -1126 -1573 -1932 -41 -127 -87 -292 -102 -370 -36 -186 -66
-407 -54 -400 3 3 10 31 14 62 11 90 37 197 79 325 220 670 737 1206 1395
1447 126 47 307 93 427 111 43 6 93 14 109 17 17 4 936 8 2044 10 1108 1 2017
5 2020 8 9 10 -321 328 -434 418 -410 327 -874 555 -1370 672 -55 13 -111 26
-125 28 -53 10 -151 27 -177 32 -16 2 -55 7 -88 10 -33 4 -73 9 -90 12 -34 6
-570 14 -576 9z"/>
<path d="M2090 4874 c-118 -21 -130 -23 -223 -55 -557 -186 -948 -723 -950
-1304 0 -56 12 -210 18 -228 2 -7 7 -30 10 -52 15 -106 82 -290 153 -420 114
-211 332 -422 561 -543 87 -46 275 -117 340 -128 14 -3 33 -7 41 -9 78 -23
406 -27 515 -6 98 19 298 86 373 126 l62 33 41 -72 c23 -39 50 -87 62 -106 38
-66 56 -100 93 -167 21 -37 48 -85 61 -105 13 -21 23 -39 23 -41 0 -6 150
-270 161 -283 12 -15 -25 -39 -157 -100 -120 -55 -237 -99 -349 -129 -228 -63
-353 -79 -600 -80 -231 0 -348 11 -510 50 -38 9 -74 18 -80 19 -184 42 -486
175 -675 296 -184 119 -403 315 -536 480 -78 97 -154 206 -154 219 0 6 -4 11
-10 11 -5 0 -10 5 -10 11 0 6 -8 23 -19 37 -10 15 -41 72 -69 127 -107 213
-175 421 -221 670 -13 71 -13 10 -1 -80 20 -137 22 -150 25 -155 1 -3 6 -27 9
-54 10 -69 78 -332 116 -446 139 -414 373 -826 658 -1159 124 -144 441 -449
442 -425 0 5 5 1 11 -8 15 -26 217 -175 345 -255 161 -101 390 -218 555 -284
54 -21 215 -79 234 -84 6 -1 17 -5 25 -8 19 -7 121 -36 146 -40 10 -2 26 -7
34 -10 19 -7 193 -45 244 -53 21 -3 48 -8 60 -10 20 -4 51 -9 124 -18 221 -29
649 -29 862 0 88 12 214 32 245 38 90 19 173 38 185 43 8 3 24 8 35 10 11 2
36 8 55 13 19 5 38 10 42 10 16 2 245 83 285 101 23 10 45 19 48 19 7 0 67 27
190 85 97 46 323 172 341 189 6 6 27 20 47 31 20 11 37 23 37 27 0 5 5 8 10 8
9 0 65 35 80 50 3 3 32 25 65 49 184 136 500 439 605 580 14 19 30 39 35 45
33 34 64 84 57 91 -4 5 -2 6 3 2 16 -8 141 176 257 378 39 67 144 287 182 380
24 58 115 317 121 345 2 8 13 53 25 100 30 117 35 139 45 196 4 22 8 44 9 49
2 6 6 33 10 60 4 28 10 66 13 85 3 19 7 46 9 60 12 84 19 233 19 430 0 227 -7
330 -29 476 -3 21 -8 59 -11 84 -18 137 -120 525 -165 625 -4 11 -23 59 -42
107 l-33 88 -790 0 -790 0 0 -1220 1 -1221 -46 -26 c-25 -14 -81 -46 -125 -71
-94 -52 -110 -61 -315 -177 -85 -49 -171 -97 -190 -108 -19 -11 -55 -31 -80
-44 -51 -27 -72 -40 -113 -67 -15 -10 -31 -16 -34 -12 -3 3 -6 667 -5 1476 l0
1470 -1026 -1 c-807 -1 -1043 -4 -1102 -15z"/>
<path d="M21 3234 c0 -11 3 -14 6 -6 3 7 2 16 -1 19 -3 4 -6 -2 -5 -13z"/>
<path d="M21 3194 c0 -11 3 -14 6 -6 3 7 2 16 -1 19 -3 4 -6 -2 -5 -13z"/>
</g>
</svg>
