<?xml version="1.0" encoding="UTF-8" standalone="no"?>
<svg
   xmlns:osb="http://www.openswatchbook.org/uri/2009/osb"
   xmlns:dc="http://purl.org/dc/elements/1.1/"
   xmlns:cc="http://creativecommons.org/ns#"
   xmlns:rdf="http://www.w3.org/1999/02/22-rdf-syntax-ns#"
   xmlns:svg="http://www.w3.org/2000/svg"
   xmlns="http://www.w3.org/2000/svg"
   xmlns:xlink="http://www.w3.org/1999/xlink"
   xmlns:sodipodi="http://sodipodi.sourceforge.net/DTD/sodipodi-0.dtd"
   xmlns:inkscape="http://www.inkscape.org/namespaces/inkscape"
   data-name="Layer 1"
   viewBox="0 0 30.000001 29.999999"
   version="1.1"
   id="svg839"
   sodipodi:docname="github.svg"
   width="30"
   height="29.999998"
   style="fill:#ffffff"
   inkscape:version="0.92.4 (5da689c313, 2019-01-14)">
  <metadata
     id="metadata845">
    <rdf:RDF>
      <cc:Work
         rdf:about="">
        <dc:format>image/svg+xml</dc:format>
        <dc:type
           rdf:resource="http://purl.org/dc/dcmitype/StillImage" />
        <dc:title>Glyph</dc:title>
      </cc:Work>
    </rdf:RDF>
  </metadata>
  <defs
     id="defs843">
    <linearGradient
       inkscape:collect="always"
       id="linearGradient6096">
      <stop
         style="stop-color:#48a9a6;stop-opacity:1;"
         offset="0"
         id="stop6092" />
      <stop
         style="stop-color:#9cde9f;stop-opacity:1"
         offset="1"
         id="stop6094" />
    </linearGradient>
    <linearGradient
       id="linearGradient862"
       osb:paint="solid">
      <stop
         style="stop-color:#000000;stop-opacity:1;"
         offset="0"
         id="stop860" />
    </linearGradient>
    <radialGradient
       inkscape:collect="always"
       xlink:href="#linearGradient6096"
       id="radialGradient6098"
       cx="-42.197426"
       cy="-35.889595"
       fx="-42.197426"
       fy="-35.889595"
       r="15"
       gradientUnits="userSpaceOnUse"
       spreadMethod="repeat"
       gradientTransform="matrix(0.16698929,-0.00221865,0.00221972,0.16707015,12.462842,12.160738)" />
  </defs>
  <sodipodi:namedview
     pagecolor="#ffffff"
     bordercolor="#666666"
     borderopacity="1"
     objecttolerance="10"
     gridtolerance="10"
     guidetolerance="10"
     inkscape:pageopacity="0"
     inkscape:pageshadow="2"
     inkscape:window-width="1920"
     inkscape:window-height="1001"
     id="namedview841"
     showgrid="false"
     showguides="false"
     inkscape:guide-bbox="true"
     inkscape:zoom="16"
     inkscape:cx="36.005005"
     inkscape:cy="13.550458"
     inkscape:window-x="-9"
     inkscape:window-y="-9"
     inkscape:window-maximized="1"
     inkscape:current-layer="layer5" />
  <title
     id="title831">Glyph</title>
  <g
     inkscape:groupmode="layer"
     id="layer1"
     inkscape:label="Layer 1"
     style="display:inline"
     transform="translate(0,0.43999863)">
    <path
       style="display:inline;opacity:1;fill:#ff2e1e;fill-opacity:1;stroke:none;stroke-width:35.94680405;stroke-miterlimit:4;stroke-dasharray:none;stroke-opacity:1"
       id="path4573"
       r="15"
       cy="14.56"
       cx="15"
       d=""
       inkscape:connector-curvature="0" />
    <circle
       style="opacity:1;fill:url(#radialGradient6098);fill-opacity:1;stroke:none;stroke-width:6.19482374;stroke-miterlimit:4;stroke-dasharray:none;stroke-opacity:1"
       id="path818"
       cx="15"
       cy="14.559999"
       r="15" />
  </g>
  <g
     inkscape:groupmode="layer"
     id="layer5"
     inkscape:label="Layer 4"
     style="display:inline">
    <g
       id="g6486"
       transform="matrix(1.3333333,0,0,-1.3333333,-21.495881,104.85916)" />
    <g
       style="fill:#292e1e;fill-opacity:1"
       id="g6272"
       transform="matrix(0.92083858,0,0,-0.92083858,14.998625,6.654419e-6)">
      <path
         d="m 0,0 c -8.995,0 -16.288,-7.293 -16.288,-16.29 0,-7.197 4.667,-13.302 11.14,-15.457 0.815,-0.149 1.112,0.354 1.112,0.786 0,0.386 -0.014,1.411 -0.022,2.77 -4.531,-0.984 -5.487,2.184 -5.487,2.184 -0.741,1.881 -1.809,2.382 -1.809,2.382 -1.479,1.011 0.112,0.991 0.112,0.991 1.635,-0.116 2.495,-1.679 2.495,-1.679 1.453,-2.489 3.813,-1.77 4.741,-1.354 0.148,1.053 0.568,1.771 1.034,2.178 -3.617,0.411 -7.42,1.809 -7.42,8.051 0,1.778 0.635,3.232 1.677,4.371 -0.168,0.412 -0.727,2.068 0.159,4.311 0,0 1.368,0.438 4.48,-1.67 1.299,0.361 2.693,0.542 4.078,0.548 1.383,-0.006 2.777,-0.187 4.078,-0.548 3.11,2.108 4.475,1.67 4.475,1.67 0.889,-2.243 0.33,-3.899 0.162,-4.311 1.044,-1.139 1.675,-2.593 1.675,-4.371 0,-6.258 -3.809,-7.635 -7.438,-8.038 0.585,-0.503 1.106,-1.497 1.106,-3.017 0,-2.177 -0.02,-3.934 -0.02,-4.468 0,-0.436 0.293,-0.943 1.12,-0.784 6.468,2.159 11.131,8.26 11.131,15.455 C 16.291,-7.293 8.997,0 0,0"
         style="fill:#292e1e;fill-opacity:1;fill-rule:evenodd;stroke:none"
         id="path6274"
         inkscape:connector-curvature="0" />
    </g>
  </g>
</svg>
