<?xml version="1.0" encoding="UTF-8" standalone="no"?>
<svg
   xmlns:osb="http://www.openswatchbook.org/uri/2009/osb"
   xmlns:dc="http://purl.org/dc/elements/1.1/"
   xmlns:cc="http://creativecommons.org/ns#"
   xmlns:rdf="http://www.w3.org/1999/02/22-rdf-syntax-ns#"
   xmlns:svg="http://www.w3.org/2000/svg"
   xmlns="http://www.w3.org/2000/svg"
   xmlns:xlink="http://www.w3.org/1999/xlink"
   xmlns:sodipodi="http://sodipodi.sourceforge.net/DTD/sodipodi-0.dtd"
   xmlns:inkscape="http://www.inkscape.org/namespaces/inkscape"
   style="fill:#ffffff"
   height="29.999998"
   width="30"
   id="svg839"
   version="1.1"
   viewBox="0 0 30.000001 29.999999"
   data-name="Layer 1"
   sodipodi:docname="instagram.svg"
   inkscape:version="0.92.4 (5da689c313, 2019-01-14)">
  <sodipodi:namedview
     pagecolor="#ffffff"
     bordercolor="#666666"
     borderopacity="1"
     objecttolerance="10"
     gridtolerance="10"
     guidetolerance="10"
     inkscape:pageopacity="0"
     inkscape:pageshadow="2"
     inkscape:window-width="1920"
     inkscape:window-height="1001"
     id="namedview7975"
     showgrid="false"
     inkscape:zoom="15.733334"
     inkscape:cx="29.212991"
     inkscape:cy="19.640149"
     inkscape:window-x="-9"
     inkscape:window-y="-9"
     inkscape:window-maximized="1"
     inkscape:current-layer="svg839" />
  <metadata
     id="metadata845">
    <rdf:RDF>
      <cc:Work
         rdf:about="">
        <dc:format>image/svg+xml</dc:format>
        <dc:type
           rdf:resource="http://purl.org/dc/dcmitype/StillImage" />
        <dc:title>Glyph</dc:title>
      </cc:Work>
    </rdf:RDF>
  </metadata>
  <defs
     id="defs843">
    <linearGradient
       id="linearGradient6096">
      <stop
         id="stop6092"
         offset="0"
         style="stop-color:#48a9a6;stop-opacity:1;" />
      <stop
         id="stop6094"
         offset="1"
         style="stop-color:#9cde9f;stop-opacity:1" />
    </linearGradient>
    <linearGradient
       osb:paint="solid"
       id="linearGradient862">
      <stop
         id="stop860"
         offset="0"
         style="stop-color:#000000;stop-opacity:1;" />
    </linearGradient>
    <radialGradient
       gradientTransform="matrix(0.35426416,-0.00313889,0.00321954,0.36337104,19.32535,20.053493)"
       spreadMethod="repeat"
       gradientUnits="userSpaceOnUse"
       r="15"
       fy="-40.378204"
       fx="-36.428474"
       cy="-40.378204"
       cx="-36.428474"
       id="radialGradient6098"
       xlink:href="#linearGradient6096" />
  </defs>
  <title
     id="title831">Glyph</title>
  <g
     transform="matrix(0.98305085,0,0,0.97457627,0.25423728,0.81016809)"
     style="display:inline"
     id="layer1">
    <path
       d=""
       cx="15"
       cy="14.56"
       r="15"
       id="path4573"
       style="display:inline;opacity:1;fill:#ff2e1e;fill-opacity:1;stroke:none;stroke-width:35.94680405;stroke-miterlimit:4;stroke-dasharray:none;stroke-opacity:1"
       inkscape:connector-curvature="0" />
    <circle
       r="15"
       cy="14.559999"
       cx="15"
       id="path818"
       style="opacity:1;fill:url(#radialGradient6098);fill-opacity:1;stroke:none;stroke-width:6.19482374;stroke-miterlimit:4;stroke-dasharray:none;stroke-opacity:1" />
  </g>
  <g
     style="display:inline"
     id="layer2"
     transform="translate(0,0.43999672)">
    <path
       id="path4559"
       transform="translate(0,-0.43999863)"
       d="M 15,0 A 15,14.999999 0 0 0 0,15 15,14.999999 0 0 0 15,30 15,14.999999 0 0 0 30,15 15,14.999999 0 0 0 15,0 Z m 0,4.6367188 c 2.807,-10e-8 3.157672,0.0135 4.263672,0.0625 a 7.595,7.595 0 0 1 2.511719,0.4824218 5.292,5.292 0 0 1 3.02539,3.0253906 7.595,7.595 0 0 1 0.482422,2.5468748 c 0.063,1.099 0.0625,1.456672 0.0625,4.263672 0,2.807 -0.0135,3.157672 -0.0625,4.263672 a 7.595,7.595 0 0 1 -0.482422,2.511719 5.292,5.292 0 0 1 -3.02539,3.02539 7.595,7.595 0 0 1 -2.511719,0.482422 c -1.099,0.063 -1.456672,0.0625 -4.263672,0.0625 -2.807,0 -3.157672,-0.0135 -4.263672,-0.0625 A 7.595,7.595 0 0 1 8.2246094,24.783203 5.292,5.292 0 0 1 5.1992188,21.757812 7.595,7.595 0 0 1 4.7167969,19.246094 c -0.063,-1.099 -0.0625,-1.456672 -0.0625,-4.263672 0,-2.807 0.0135,-3.157672 0.0625,-4.263672 A 7.595,7.595 0 0 1 5.1992188,8.2070312 5.292,5.292 0 0 1 8.2246094,5.1816406 7.595,7.595 0 0 1 10.736328,4.6992188 c 1.099,-0.063 1.456672,-0.0625 4.263672,-0.0625 z m -0.04297,1.8203124 c -2.8,10e-8 -3.107216,0.0135 -4.199219,0.0625 A 5.726,5.726 0 0 0 8.8398438,6.8769531 3.423,3.423 0 0 0 6.8652344,8.84375 5.726,5.726 0 0 0 6.5097656,10.783203 c -0.063,1.113 -0.064453,1.399219 -0.064453,4.199219 0,2.8 0.015453,3.107219 0.064453,4.199219 a 5.726,5.726 0 0 0 0.3554688,1.917968 3.423,3.423 0 0 0 1.9746094,1.96875 5.726,5.726 0 0 0 1.9179682,0.355469 c 1.113002,0.063 1.399219,0.06445 4.199219,0.06445 2.8,0 3.109172,-0.01545 4.201172,-0.06445 a 5.726,5.726 0 0 0 1.917969,-0.355469 3.43,3.43 0 0 0 1.966797,-1.96875 5.726,5.726 0 0 0 0.357422,-1.9375 h 0.01367 c 0.049,-1.099 0.04883,-1.401173 0.04883,-4.201171 0,-2.800001 -0.0135,-3.107219 -0.0625,-4.199219 A 5.726,5.726 0 0 0 23.042969,8.84375 3.43,3.43 0 0 0 21.076172,6.8769531 5.726,5.726 0 0 0 19.158203,6.5195312 c -1.113,-0.063 -1.401172,-0.0625 -4.201172,-0.0625 z m 5.558594,1.7695313 a 1.239,1.239 0 0 1 1.240234,1.2402344 1.239,1.239 0 0 1 -1.240234,1.2382811 1.239,1.239 0 0 1 -1.238281,-1.2382811 1.239,1.239 0 0 1 1.238281,-1.2402344 z m -5.587891,1.4355469 a 5.313,5.313 0 0 1 0.06445,0 5.313,5.313 0 0 1 5.314453,5.3124996 5.313,5.313 0 1 1 -5.378907,-5.3124996 z m -0.03711,1.8632816 a 3.451,3.451 0 0 0 -0.04102,0.002 3.451,3.451 0 0 0 0.142579,6.898437 3.451,3.451 0 0 0 3.451171,-3.451172 3.451,3.451 0 0 0 -3.552734,-3.449218 z"
       style="display:inline;opacity:1;fill:#292e1e;fill-opacity:1;stroke:none;stroke-width:11.22940159;stroke-miterlimit:4;stroke-dasharray:none;stroke-opacity:1"
       inkscape:connector-curvature="0" />
  </g>
</svg>
