<?xml version="1.0" encoding="UTF-8" standalone="no"?>
<svg
   xmlns:osb="http://www.openswatchbook.org/uri/2009/osb"
   xmlns:dc="http://purl.org/dc/elements/1.1/"
   xmlns:cc="http://creativecommons.org/ns#"
   xmlns:rdf="http://www.w3.org/1999/02/22-rdf-syntax-ns#"
   xmlns:svg="http://www.w3.org/2000/svg"
   xmlns="http://www.w3.org/2000/svg"
   xmlns:xlink="http://www.w3.org/1999/xlink"
   xmlns:sodipodi="http://sodipodi.sourceforge.net/DTD/sodipodi-0.dtd"
   xmlns:inkscape="http://www.inkscape.org/namespaces/inkscape"
   style="fill:#ffffff"
   height="29.999998"
   width="30"
   id="svg839"
   version="1.1"
   viewBox="0 0 30.000001 29.999999"
   data-name="Layer 1"
   sodipodi:docname="instagram.svg"
   inkscape:version="1.0.1 (1.0.1+r74)">
  <sodipodi:namedview
     pagecolor="#ffffff"
     bordercolor="#666666"
     borderopacity="1"
     objecttolerance="10"
     gridtolerance="10"
     guidetolerance="10"
     inkscape:pageopacity="0"
     inkscape:pageshadow="2"
     inkscape:window-width="1920"
     inkscape:window-height="1080"
     id="namedview7975"
     showgrid="false"
     inkscape:zoom="15.733334"
     inkscape:cx="17.422737"
     inkscape:cy="19.640149"
     inkscape:window-x="0"
     inkscape:window-y="0"
     inkscape:window-maximized="1"
     inkscape:current-layer="svg839"
     inkscape:document-rotation="0" />
  <metadata
     id="metadata845">
    <rdf:RDF>
      <cc:Work
         rdf:about="">
        <dc:format>image/svg+xml</dc:format>
        <dc:type
           rdf:resource="http://purl.org/dc/dcmitype/StillImage" />
        <dc:title>Glyph</dc:title>
      </cc:Work>
    </rdf:RDF>
  </metadata>
  <defs
     id="defs843">
    <linearGradient
       id="linearGradient6096">
      <stop
         id="stop6092"
         offset="0"
         style="stop-color:#48a9a6;stop-opacity:1;" />
      <stop
         id="stop6094"
         offset="1"
         style="stop-color:#9cde9f;stop-opacity:1" />
    </linearGradient>
    <linearGradient
       osb:paint="solid"
       id="linearGradient862">
      <stop
         id="stop860"
         offset="0"
         style="stop-color:#000000;stop-opacity:1;" />
    </linearGradient>
    <radialGradient
       gradientTransform="matrix(0.35426416,-0.00313889,0.00321954,0.36337104,19.32535,20.053493)"
       spreadMethod="repeat"
       gradientUnits="userSpaceOnUse"
       r="15"
       fy="-40.378204"
       fx="-36.428474"
       cy="-40.378204"
       cx="-36.428474"
       id="radialGradient6098"
       xlink:href="#linearGradient6096" />
  </defs>
  <title
     id="title831">Glyph</title>
  <g
     transform="matrix(0.98305085,0,0,0.97457627,0.25423728,0.81016809)"
     style="display:inline"
     id="layer1">
    <path
       d=""
       cx="15"
       cy="14.56"
       r="15"
       id="path4573"
       style="display:inline;opacity:1;fill:#ff2e1e;fill-opacity:1;stroke:none;stroke-width:35.94680405;stroke-miterlimit:4;stroke-dasharray:none;stroke-opacity:1"
       inkscape:connector-curvature="0" />
    <circle
       r="15"
       cy="14.559999"
       cx="15"
       id="path818"
       style="opacity:1;fill:url(#radialGradient6098);fill-opacity:1;stroke:none;stroke-width:6.19482374;stroke-miterlimit:4;stroke-dasharray:none;stroke-opacity:1" />
  </g>
  <g
     style="display:inline"
     id="layer2"
     transform="translate(0,0.43999672)">
    <path
       id="path4559"
       style="display:inline;opacity:1;fill:#292e1e;fill-opacity:1;stroke:none;stroke-width:11.2294;stroke-miterlimit:4;stroke-dasharray:none;stroke-opacity:1"
       d="M 15 0 C 6.7157284 0 -5.5228481e-07 6.7157289 0 15 C -5.5228481e-07 23.284271 6.7157284 30 15 30 C 23.284272 30 30.000001 23.284271 30 15 C 30.000001 6.7157289 23.284272 0 15 0 z M 9.3671875 5.34375 L 20.632812 5.34375 C 22.85544 5.34375 24.65625 7.1453624 24.65625 9.3671875 L 24.65625 20.632812 C 24.65625 22.854638 22.855441 24.65625 20.632812 24.65625 L 9.3671875 24.65625 C 7.1453614 24.65625 5.34375 22.854637 5.34375 20.632812 L 5.34375 9.3671875 C 5.34375 7.1453624 7.1453614 5.34375 9.3671875 5.34375 z M 10.574219 7.921875 C 9.7968611 7.921875 9.1660156 8.5580011 9.1660156 9.3417969 C 9.1660156 10.125594 9.7968611 10.761719 10.574219 10.761719 C 11.352382 10.761719 11.982422 10.125594 11.982422 9.3417969 C 11.982422 8.5580011 11.351577 7.921875 10.574219 7.921875 z M 9.3671875 11.78125 L 9.3671875 20.632812 L 11.78125 20.632812 L 11.78125 11.78125 L 9.3671875 11.78125 z M 13.390625 11.78125 L 13.390625 20.632812 L 15.804688 20.632812 L 15.804688 16.123047 C 15.804688 13.617962 19.023438 13.41276 19.023438 16.123047 L 19.023438 20.632812 L 21.4375 20.632812 L 21.4375 15.193359 C 21.4375 10.966177 16.928075 11.120173 15.804688 13.201172 L 15.804688 11.78125 L 13.390625 11.78125 z "
       transform="translate(0,-0.43999672)" />
  </g>
</svg>
