<?xml version="1.0" encoding="UTF-8" standalone="no"?>
<svg
   xmlns:osb="http://www.openswatchbook.org/uri/2009/osb"
   xmlns:dc="http://purl.org/dc/elements/1.1/"
   xmlns:cc="http://creativecommons.org/ns#"
   xmlns:rdf="http://www.w3.org/1999/02/22-rdf-syntax-ns#"
   xmlns:svg="http://www.w3.org/2000/svg"
   xmlns="http://www.w3.org/2000/svg"
   xmlns:xlink="http://www.w3.org/1999/xlink"
   xmlns:sodipodi="http://sodipodi.sourceforge.net/DTD/sodipodi-0.dtd"
   xmlns:inkscape="http://www.inkscape.org/namespaces/inkscape"
   style="fill:#ffffff"
   height="29.999998"
   width="30"
   id="svg839"
   version="1.1"
   viewBox="0 0 30.000001 29.999999"
   data-name="Layer 1"
   sodipodi:docname="mail.svg"
   inkscape:version="0.92.4 (5da689c313, 2019-01-14)">
  <sodipodi:namedview
     pagecolor="#ffffff"
     bordercolor="#666666"
     borderopacity="1"
     objecttolerance="10"
     gridtolerance="10"
     guidetolerance="10"
     inkscape:pageopacity="0"
     inkscape:pageshadow="2"
     inkscape:window-width="1920"
     inkscape:window-height="1001"
     id="namedview7279"
     showgrid="false"
     inkscape:zoom="15.733334"
     inkscape:cx="24.69546"
     inkscape:cy="15.563946"
     inkscape:window-x="-9"
     inkscape:window-y="-9"
     inkscape:window-maximized="1"
     inkscape:current-layer="svg839" />
  <metadata
     id="metadata845">
    <rdf:RDF>
      <cc:Work
         rdf:about="">
        <dc:format>image/svg+xml</dc:format>
        <dc:type
           rdf:resource="http://purl.org/dc/dcmitype/StillImage" />
        <dc:title>Glyph</dc:title>
      </cc:Work>
    </rdf:RDF>
  </metadata>
  <defs
     id="defs843">
    <linearGradient
       id="linearGradient6096">
      <stop
         id="stop6092"
         offset="0"
         style="stop-color:#48a9a6;stop-opacity:1;" />
      <stop
         id="stop6094"
         offset="1"
         style="stop-color:#9cde9f;stop-opacity:1" />
    </linearGradient>
    <linearGradient
       osb:paint="solid"
       id="linearGradient862">
      <stop
         id="stop860"
         offset="0"
         style="stop-color:#000000;stop-opacity:1;" />
    </linearGradient>
    <radialGradient
       gradientTransform="matrix(0.16698929,-0.00221865,0.00221972,0.16707015,12.462842,12.160738)"
       spreadMethod="repeat"
       gradientUnits="userSpaceOnUse"
       r="15"
       fy="-35.889595"
       fx="-42.197426"
       cy="-35.889595"
       cx="-42.197426"
       id="radialGradient6098"
       xlink:href="#linearGradient6096" />
  </defs>
  <title
     id="title831">Glyph</title>
  <g
     transform="translate(0,0.43999863)"
     style="display:inline"
     id="layer1">
    <path
       d=""
       cx="15"
       cy="14.56"
       r="15"
       id="path4573"
       style="display:inline;opacity:1;fill:#ff2e1e;fill-opacity:1;stroke:none;stroke-width:35.94680405;stroke-miterlimit:4;stroke-dasharray:none;stroke-opacity:1" />
    <circle
       r="15"
       cy="14.559999"
       cx="15"
       id="path818"
       style="opacity:1;fill:url(#radialGradient6098);fill-opacity:1;stroke:none;stroke-width:6.19482374;stroke-miterlimit:4;stroke-dasharray:none;stroke-opacity:1" />
  </g>
  <g
     style="display:inline"
     id="layer3">
    <path
       id="path6226"
       d="M 15,0 A 15,15 0 0 0 0,15 15,15 0 0 0 15,30 15,15 0 0 0 30,15 15,15 0 0 0 15,0 Z M 6.2792969,6.7285156 H 23.720703 c 1.090042,0 1.953083,0.8337052 1.953125,1.8867188 V 21.384766 c 0,1.009204 -0.863083,1.886718 -1.953125,1.886718 H 6.2792969 c -1.0900416,0 -1.953125,-0.833664 -1.953125,-1.886718 V 8.6152344 c 0,-1.0530136 0.863126,-1.8867188 1.953125,-1.8867188 z M 7.3691406,8.4394531 15,15.066406 22.675781,8.4394531 Z M 6.0976562,9.7128906 V 21.384766 c 10e-8,0.08778 0.090818,0.175781 0.1816407,0.175781 H 23.720703 c 0.09082,0 0.181641,-0.08804 0.181641,-0.175781 V 9.7128906 l -8.3125,7.1523434 c -0.181688,0.131632 -0.362766,0.21875 -0.589844,0.21875 -0.22712,0 -0.408156,-0.08712 -0.589844,-0.21875 z"
       style="opacity:1;fill:#292e1e;fill-opacity:1;stroke:none;stroke-width:9.85246372;stroke-miterlimit:4;stroke-dasharray:none;stroke-opacity:1" />
    <g
       transform="matrix(0.04257975,0,0,0.04113495,4.3266618,4.6888451)"
       id="g6147"
       style="fill:#f62e1e;fill-opacity:1">
      <g
         id="g6145"
         style="fill:#f62e1e;fill-opacity:1" />
    </g>
    <g
       transform="matrix(0.04257975,0,0,0.04113495,4.3266618,4.6888451)"
       id="g6149"
       style="fill:#f62e1e;fill-opacity:1" />
    <g
       transform="matrix(0.04257975,0,0,0.04113495,4.3266618,4.6888451)"
       id="g6151"
       style="fill:#f62e1e;fill-opacity:1" />
    <g
       transform="matrix(0.04257975,0,0,0.04113495,4.3266618,4.6888451)"
       id="g6153"
       style="fill:#f62e1e;fill-opacity:1" />
    <g
       transform="matrix(0.04257975,0,0,0.04113495,4.3266618,4.6888451)"
       id="g6155"
       style="fill:#f62e1e;fill-opacity:1" />
    <g
       transform="matrix(0.04257975,0,0,0.04113495,4.3266618,4.6888451)"
       id="g6157"
       style="fill:#f62e1e;fill-opacity:1" />
    <g
       transform="matrix(0.04257975,0,0,0.04113495,4.3266618,4.6888451)"
       id="g6159"
       style="fill:#f62e1e;fill-opacity:1" />
    <g
       transform="matrix(0.04257975,0,0,0.04113495,4.3266618,4.6888451)"
       id="g6161"
       style="fill:#f62e1e;fill-opacity:1" />
    <g
       transform="matrix(0.04257975,0,0,0.04113495,4.3266618,4.6888451)"
       id="g6163"
       style="fill:#f62e1e;fill-opacity:1" />
    <g
       transform="matrix(0.04257975,0,0,0.04113495,4.3266618,4.6888451)"
       id="g6165"
       style="fill:#f62e1e;fill-opacity:1" />
    <g
       transform="matrix(0.04257975,0,0,0.04113495,4.3266618,4.6888451)"
       id="g6167"
       style="fill:#f62e1e;fill-opacity:1" />
    <g
       transform="matrix(0.04257975,0,0,0.04113495,4.3266618,4.6888451)"
       id="g6169"
       style="fill:#f62e1e;fill-opacity:1" />
    <g
       transform="matrix(0.04257975,0,0,0.04113495,4.3266618,4.6888451)"
       id="g6171"
       style="fill:#f62e1e;fill-opacity:1" />
    <g
       transform="matrix(0.04257975,0,0,0.04113495,4.3266618,4.6888451)"
       id="g6173"
       style="fill:#f62e1e;fill-opacity:1" />
    <g
       transform="matrix(0.04257975,0,0,0.04113495,4.3266618,4.6888451)"
       id="g6175"
       style="fill:#f62e1e;fill-opacity:1" />
    <g
       transform="matrix(0.04257975,0,0,0.04113495,4.3266618,4.6888451)"
       id="g6177"
       style="fill:#f62e1e;fill-opacity:1" />
  </g>
</svg>
